<?xml version="1.0" encoding="UTF-8" standalone="no"?>
<!DOCTYPE svg PUBLIC "-//W3C//DTD SVG 1.1//EN"
 "http://www.w3.org/Graphics/SVG/1.1/DTD/svg11.dtd">
<!-- Generated by graphviz version 9.0.0 (20230911.1827)
 -->
<!-- Title: snakemake_dag Pages: 1 -->
<svg width="89pt" height="116pt"
 viewBox="0.00 0.00 88.50 116.00" xmlns="http://www.w3.org/2000/svg" xmlns:xlink="http://www.w3.org/1999/xlink">
<g id="graph0" class="graph" transform="scale(1 1) rotate(0) translate(4 112)">
<title>snakemake_dag</title>
<polygon fill="white" stroke="none" points="-4,4 -4,-112 84.5,-112 84.5,4 -4,4"/>
<!-- 0 -->
<g id="node1" class="node">
<title>0</title>
<path fill="none" stroke="#59d856" stroke-width="2" d="M55.25,-36C55.25,-36 25.25,-36 25.25,-36 19.25,-36 13.25,-30 13.25,-24 13.25,-24 13.25,-12 13.25,-12 13.25,-6 19.25,0 25.25,0 25.25,0 55.25,0 55.25,0 61.25,0 67.25,-6 67.25,-12 67.25,-12 67.25,-24 67.25,-24 67.25,-30 61.25,-36 55.25,-36"/>
<text text-anchor="middle" x="40.25" y="-14.12" font-family="sans" font-size="10.00">all</text>
</g>
<!-- 1 -->
<g id="node2" class="node">
<title>1</title>
<path fill="none" stroke="#d85656" stroke-width="2" d="M68.5,-108C68.5,-108 12,-108 12,-108 6,-108 0,-102 0,-96 0,-96 0,-84 0,-84 0,-78 6,-72 12,-72 12,-72 68.5,-72 68.5,-72 74.5,-72 80.5,-78 80.5,-84 80.5,-84 80.5,-96 80.5,-96 80.5,-102 74.5,-108 68.5,-108"/>
<text text-anchor="middle" x="40.25" y="-86.12" font-family="sans" font-size="10.00">makesummary</text>
</g>
<!-- 1&#45;&gt;0 -->
<g id="edge1" class="edge">
<title>1&#45;&gt;0</title>
<path fill="none" stroke="grey" stroke-width="2" d="M40.25,-71.34C40.25,-64.75 40.25,-57.08 40.25,-49.67"/>
<polygon fill="grey" stroke="grey" stroke-width="2" points="43.75,-49.93 40.25,-39.93 36.75,-49.93 43.75,-49.93"/>
</g>
</g>
</svg>
