<?xml version="1.0" encoding="UTF-8" standalone="no"?>
<!DOCTYPE svg PUBLIC "-//W3C//DTD SVG 1.1//EN"
 "http://www.w3.org/Graphics/SVG/1.1/DTD/svg11.dtd">
<!-- Generated by graphviz version 9.0.0 (20230911.1827)
 -->
<!-- Title: snakemake_dag Pages: 1 -->
<svg width="146pt" height="233pt"
 viewBox="0.00 0.00 145.75 232.50" xmlns="http://www.w3.org/2000/svg" xmlns:xlink="http://www.w3.org/1999/xlink">
<g id="graph0" class="graph" transform="scale(1 1) rotate(0) translate(4 228.5)">
<title>snakemake_dag</title>
<polygon fill="white" stroke="none" points="-4,4 -4,-228.5 141.75,-228.5 141.75,4 -4,4"/>
<!-- 0 -->
<g id="node1" class="node">
<title>0</title>
<text text-anchor="start" x="58.75" y="-71.15" font-family="sans" font-weight="bold" font-size="18.00">all</text>
<text text-anchor="start" x="11.88" y="-49.2" font-family="sans" font-size="10.00"> </text>
<text text-anchor="start" x="14.88" y="-49.2" font-family="sans" font-weight="bold" font-size="14.00">↪ input</text>
<text text-anchor="start" x="65.88" y="-49.2" font-family="sans" font-size="10.00"> </text>
<text text-anchor="start" x="11.88" y="-27" font-family="monospace" font-size="10.00">results/summary.txt</text>
<text text-anchor="start" x="119.88" y="-8.75" font-family="sans" font-size="10.00"> &#160;</text>
<polygon fill="#57d957" stroke="#57d957" points="5.88,-65.5 5.88,-65.5 132.88,-65.5 132.88,-65.5 5.88,-65.5"/>
<polygon fill="#57d957" stroke="#57d957" points="5.88,-22.25 5.88,-22.25 132.88,-22.25 132.88,-22.25 5.88,-22.25"/>
<polygon fill="none" stroke="#57d957" stroke-width="2" points="5.88,-1 5.88,-93.25 131.88,-93.25 131.88,-1 5.88,-1"/>
</g>
<!-- 1 -->
<g id="node2" class="node">
<title>1</title>
<text text-anchor="start" x="7" y="-201.4" font-family="sans" font-weight="bold" font-size="18.00">makesummary</text>
<text text-anchor="start" x="7" y="-182.25" font-family="sans" font-size="10.00"> &#160;</text>
<text text-anchor="start" x="64.75" y="-161.2" font-family="sans" font-size="10.00"> </text>
<text text-anchor="start" x="67.75" y="-161.2" font-family="sans" font-weight="bold" font-size="14.00">output →</text>
<text text-anchor="start" x="127.75" y="-161.2" font-family="sans" font-size="10.00"> </text>
<text text-anchor="start" x="7" y="-139" font-family="monospace" font-size="10.00">results/summary.txt</text>
<polygon fill="#d95757" stroke="#d95757" points="1,-195.75 1,-195.75 137.75,-195.75 137.75,-195.75 1,-195.75"/>
<polygon fill="#d95757" stroke="#d95757" points="1,-177.5 1,-177.5 137.75,-177.5 137.75,-177.5 1,-177.5"/>
<polygon fill="none" stroke="#d95757" stroke-width="2" points="1,-131.25 1,-223.5 136.75,-223.5 136.75,-131.25 1,-131.25"/>
</g>
<!-- 1&#45;&gt;0 -->
<g id="edge1" class="edge">
<title>1&#45;&gt;0</title>
<path fill="none" stroke="grey" stroke-width="2" d="M68.88,-130.44C68.88,-122.88 68.88,-114.97 68.88,-107.15"/>
<polygon fill="grey" stroke="grey" stroke-width="2" points="72.38,-107.2 68.88,-97.2 65.38,-107.2 72.38,-107.2"/>
</g>
</g>
</svg>
